<mxfile host="app.diagrams.net" modified="2023-07-24T08:50:50.594Z" agent="Mozilla/5.0 (Macintosh; Intel Mac OS X 10_15_7) AppleWebKit/537.36 (KHTML, like Gecko) Chrome/114.0.0.0 Safari/537.36" etag="lzhfbGmy8CS_B4tYDwlL" version="21.6.5" type="github" pages="3">
  <diagram name="数据中台技术架构图-1" id="JBZHbjwEhpAROHOcrjpn">
    <mxGraphModel dx="1781" dy="1697" grid="1" gridSize="10" guides="1" tooltips="1" connect="1" arrows="1" fold="1" page="1" pageScale="1" pageWidth="827" pageHeight="1169" math="0" shadow="0">
      <root>
        <mxCell id="0" />
        <mxCell id="1" parent="0" />
        <mxCell id="7xT1okyIv0pge_eyf053-1" value="" style="rounded=0;whiteSpace=wrap;html=1;labelBackgroundColor=none;dashed=1;strokeWidth=1;perimeterSpacing=1;fillColor=#b1ddf0;strokeColor=#10739e;" parent="1" vertex="1">
          <mxGeometry x="200" y="430" width="280" height="160" as="geometry" />
        </mxCell>
        <mxCell id="7xT1okyIv0pge_eyf053-26" value="" style="group;rounded=0;dashed=1;container=0;labelBackgroundColor=none;fontColor=#1D3557;" parent="1" vertex="1" connectable="0">
          <mxGeometry x="40" y="170" width="60" height="417" as="geometry" />
        </mxCell>
        <mxCell id="7xT1okyIv0pge_eyf053-30" value="" style="rounded=0;whiteSpace=wrap;html=1;labelBackgroundColor=none;dashed=1;glass=0;shadow=0;fillColor=#d0cee2;strokeColor=#56517e;" parent="1" vertex="1">
          <mxGeometry x="510" y="430" width="540" height="157" as="geometry" />
        </mxCell>
        <mxCell id="7xT1okyIv0pge_eyf053-31" value="" style="rounded=0;whiteSpace=wrap;html=1;labelBackgroundColor=none;dashed=1;fillColor=#fad9d5;strokeColor=#ae4132;" parent="1" vertex="1">
          <mxGeometry x="200" y="179" width="850" height="103" as="geometry" />
        </mxCell>
        <mxCell id="7xT1okyIv0pge_eyf053-32" value="" style="rounded=0;whiteSpace=wrap;html=1;labelBackgroundColor=none;dashed=1;fillColor=#bac8d3;strokeColor=#23445d;" parent="1" vertex="1">
          <mxGeometry x="200" y="101" width="850" height="60" as="geometry" />
        </mxCell>
        <mxCell id="7xT1okyIv0pge_eyf053-33" value="统一认证服务" style="text;strokeColor=none;align=center;fillColor=none;html=1;verticalAlign=middle;whiteSpace=wrap;rounded=0;labelBackgroundColor=none;fontStyle=1;fontColor=#1D3557;" parent="1" vertex="1">
          <mxGeometry x="210.00294117647059" y="114.57459854014587" width="89.11764705882354" height="32.846715328467155" as="geometry" />
        </mxCell>
        <mxCell id="7xT1okyIv0pge_eyf053-34" value="" style="shape=flexArrow;endArrow=classic;html=1;rounded=0;width=8;endSize=5.7;endWidth=9;labelBackgroundColor=none;fontColor=default;strokeColor=#457B9D;" parent="1" edge="1">
          <mxGeometry width="50" height="50" relative="1" as="geometry">
            <mxPoint x="212" y="71" as="sourcePoint" />
            <mxPoint x="211.7560975609756" y="31" as="targetPoint" />
          </mxGeometry>
        </mxCell>
        <mxCell id="7xT1okyIv0pge_eyf053-35" value="" style="shape=flexArrow;endArrow=classic;html=1;rounded=0;width=8;endSize=5.7;endWidth=9;labelBackgroundColor=none;fontColor=default;strokeColor=#457B9D;" parent="1" edge="1">
          <mxGeometry width="50" height="50" relative="1" as="geometry">
            <mxPoint x="400.24" y="72" as="sourcePoint" />
            <mxPoint x="399.9960975609756" y="32" as="targetPoint" />
          </mxGeometry>
        </mxCell>
        <mxCell id="7xT1okyIv0pge_eyf053-36" value="" style="shape=flexArrow;endArrow=classic;html=1;rounded=0;width=8;endSize=5.7;endWidth=9;labelBackgroundColor=none;fontColor=default;strokeColor=#457B9D;" parent="1" edge="1">
          <mxGeometry width="50" height="50" relative="1" as="geometry">
            <mxPoint x="590.24" y="72" as="sourcePoint" />
            <mxPoint x="589.9960975609756" y="32" as="targetPoint" />
          </mxGeometry>
        </mxCell>
        <mxCell id="7xT1okyIv0pge_eyf053-37" value="" style="shape=flexArrow;endArrow=classic;html=1;rounded=0;width=8;endSize=5.7;endWidth=9;labelBackgroundColor=none;fontColor=default;strokeColor=#457B9D;" parent="1" edge="1">
          <mxGeometry width="50" height="50" relative="1" as="geometry">
            <mxPoint x="780.24" y="72" as="sourcePoint" />
            <mxPoint x="779.9960975609756" y="32" as="targetPoint" />
          </mxGeometry>
        </mxCell>
        <mxCell id="7xT1okyIv0pge_eyf053-38" value="" style="shape=flexArrow;endArrow=classic;html=1;rounded=0;width=8;endSize=5.7;endWidth=9;labelBackgroundColor=none;fontColor=default;strokeColor=#457B9D;" parent="1" edge="1">
          <mxGeometry width="50" height="50" relative="1" as="geometry">
            <mxPoint x="990.24" y="72" as="sourcePoint" />
            <mxPoint x="989.9960975609756" y="32" as="targetPoint" />
          </mxGeometry>
        </mxCell>
        <mxCell id="7xT1okyIv0pge_eyf053-39" value="" style="rounded=0;whiteSpace=wrap;html=1;labelBackgroundColor=none;dashed=1;fillColor=#f5f5f5;strokeColor=#666666;fontColor=#333333;" parent="1" vertex="1">
          <mxGeometry x="40" y="-49.00364963503648" width="1010.0000000000002" height="65.69343065693431" as="geometry" />
        </mxCell>
        <mxCell id="7xT1okyIv0pge_eyf053-40" value="第三方应用" style="rounded=0;whiteSpace=wrap;html=1;labelBackgroundColor=none;fillColor=#dae8fc;gradientColor=#7ea6e0;strokeColor=#6c8ebf;" parent="1" vertex="1">
          <mxGeometry x="60.0023529411765" y="-38.05452554744522" width="118.8235294117647" height="43.7956204379562" as="geometry" />
        </mxCell>
        <mxCell id="7xT1okyIv0pge_eyf053-41" value="管理平台" style="rounded=0;whiteSpace=wrap;html=1;labelBackgroundColor=none;fillColor=#dae8fc;strokeColor=#6c8ebf;gradientColor=#7ea6e0;" parent="1" vertex="1">
          <mxGeometry x="200.0023529411765" y="-38.05452554744522" width="118.8235294117647" height="43.7956204379562" as="geometry" />
        </mxCell>
        <mxCell id="7xT1okyIv0pge_eyf053-42" value="离线登录" style="rounded=0;whiteSpace=wrap;html=1;labelBackgroundColor=none;fillColor=#dae8fc;strokeColor=#6c8ebf;gradientColor=#7ea6e0;" parent="1" vertex="1">
          <mxGeometry x="340.00235294117647" y="-38.05452554744522" width="118.8235294117647" height="43.7956204379562" as="geometry" />
        </mxCell>
        <mxCell id="7xT1okyIv0pge_eyf053-43" value="修改密码" style="rounded=0;whiteSpace=wrap;html=1;labelBackgroundColor=none;fillColor=#dae8fc;strokeColor=#6c8ebf;gradientColor=#7ea6e0;" parent="1" vertex="1">
          <mxGeometry x="480.00235294117647" y="-38.05452554744522" width="118.8235294117647" height="43.7956204379562" as="geometry" />
        </mxCell>
        <mxCell id="7xT1okyIv0pge_eyf053-44" value="密码登录" style="rounded=0;whiteSpace=wrap;html=1;labelBackgroundColor=none;fillColor=#dae8fc;strokeColor=#6c8ebf;gradientColor=#7ea6e0;" parent="1" vertex="1">
          <mxGeometry x="620.0023529411765" y="-38.05452554744522" width="118.8235294117647" height="43.7956204379562" as="geometry" />
        </mxCell>
        <mxCell id="7xT1okyIv0pge_eyf053-45" value="短信登录" style="rounded=0;whiteSpace=wrap;html=1;labelBackgroundColor=none;fillColor=#dae8fc;strokeColor=#6c8ebf;gradientColor=#7ea6e0;" parent="1" vertex="1">
          <mxGeometry x="760.0023529411765" y="-38.05452554744522" width="118.8235294117647" height="43.7956204379562" as="geometry" />
        </mxCell>
        <mxCell id="7xT1okyIv0pge_eyf053-46" value="二维码扫描" style="rounded=0;whiteSpace=wrap;html=1;labelBackgroundColor=none;fillColor=#dae8fc;strokeColor=#6c8ebf;gradientColor=#7ea6e0;" parent="1" vertex="1">
          <mxGeometry x="900.0023529411765" y="-38.05452554744522" width="118.8235294117647" height="43.7956204379562" as="geometry" />
        </mxCell>
        <mxCell id="7xT1okyIv0pge_eyf053-47" value="人员管理" style="rounded=0;whiteSpace=wrap;html=1;labelBackgroundColor=none;fillColor=#fff2cc;strokeColor=#d6b656;gradientColor=#ffd966;" parent="1" vertex="1">
          <mxGeometry x="310.00176470588235" y="109.09547445255475" width="118.8235294117647" height="43.7956204379562" as="geometry" />
        </mxCell>
        <mxCell id="7xT1okyIv0pge_eyf053-48" value="文件下发" style="rounded=0;whiteSpace=wrap;html=1;labelBackgroundColor=none;fillColor=#dae8fc;strokeColor=#6c8ebf;gradientColor=#7ea6e0;" parent="1" vertex="1">
          <mxGeometry x="221.18" y="470" width="98.82" height="40" as="geometry" />
        </mxCell>
        <mxCell id="7xT1okyIv0pge_eyf053-49" value="组织架构管理" style="rounded=0;whiteSpace=wrap;html=1;labelBackgroundColor=none;fillColor=#fff2cc;strokeColor=#d6b656;gradientColor=#ffd966;" parent="1" vertex="1">
          <mxGeometry x="450.00176470588235" y="109.10547445255474" width="118.8235294117647" height="43.7956204379562" as="geometry" />
        </mxCell>
        <mxCell id="7xT1okyIv0pge_eyf053-50" value="终端管理" style="rounded=0;whiteSpace=wrap;html=1;labelBackgroundColor=none;fillColor=#fff2cc;strokeColor=#d6b656;gradientColor=#ffd966;" parent="1" vertex="1">
          <mxGeometry x="590.0017647058824" y="109.09547445255475" width="118.8235294117647" height="43.7956204379562" as="geometry" />
        </mxCell>
        <mxCell id="7xT1okyIv0pge_eyf053-51" value="ldap接口" style="rounded=0;whiteSpace=wrap;html=1;labelBackgroundColor=none;fillColor=#fff2cc;strokeColor=#d6b656;gradientColor=#ffd966;" parent="1" vertex="1">
          <mxGeometry x="730.0017647058824" y="109.09547445255475" width="118.8235294117647" height="43.7956204379562" as="geometry" />
        </mxCell>
        <mxCell id="7xT1okyIv0pge_eyf053-52" value="本地账户接口" style="rounded=0;whiteSpace=wrap;html=1;labelBackgroundColor=none;fillColor=#fff2cc;strokeColor=#d6b656;gradientColor=#ffd966;" parent="1" vertex="1">
          <mxGeometry x="870.0017647058824" y="109.09547445255475" width="118.8235294117647" height="43.7956204379562" as="geometry" />
        </mxCell>
        <mxCell id="7xT1okyIv0pge_eyf053-53" value="软件下发" style="rounded=0;whiteSpace=wrap;html=1;labelBackgroundColor=none;fillColor=#dae8fc;strokeColor=#6c8ebf;gradientColor=#7ea6e0;" parent="1" vertex="1">
          <mxGeometry x="221.18" y="530" width="98.82" height="40" as="geometry" />
        </mxCell>
        <mxCell id="7xT1okyIv0pge_eyf053-54" value="脚本下发" style="rounded=0;whiteSpace=wrap;html=1;labelBackgroundColor=none;fillColor=#dae8fc;strokeColor=#6c8ebf;gradientColor=#7ea6e0;" parent="1" vertex="1">
          <mxGeometry x="354" y="470" width="96" height="40" as="geometry" />
        </mxCell>
        <mxCell id="7xT1okyIv0pge_eyf053-56" value="补丁下发" style="rounded=0;whiteSpace=wrap;html=1;labelBackgroundColor=none;fillColor=#dae8fc;strokeColor=#6c8ebf;gradientColor=#7ea6e0;" parent="1" vertex="1">
          <mxGeometry x="354" y="530" width="96" height="40" as="geometry" />
        </mxCell>
        <mxCell id="7xT1okyIv0pge_eyf053-57" value="任务管理" style="text;strokeColor=none;align=center;fillColor=none;html=1;verticalAlign=middle;whiteSpace=wrap;rounded=0;labelBackgroundColor=none;fontStyle=1;fontColor=#1D3557;" parent="1" vertex="1">
          <mxGeometry x="306.0029411764706" y="430.00459854014593" width="89.11764705882354" height="32.846715328467155" as="geometry" />
        </mxCell>
        <mxCell id="7xT1okyIv0pge_eyf053-58" value="应用层" style="rounded=0;whiteSpace=wrap;html=1;labelBackgroundColor=none;fillColor=#ffe6cc;strokeColor=#d79b00;" parent="1" vertex="1">
          <mxGeometry x="-110" y="-48" width="120" height="70" as="geometry" />
        </mxCell>
        <mxCell id="7xT1okyIv0pge_eyf053-59" value="数据服务层" style="rounded=0;whiteSpace=wrap;html=1;labelBackgroundColor=none;fillColor=#fff2cc;strokeColor=#d6b656;" parent="1" vertex="1">
          <mxGeometry x="-110" y="100" width="120" height="490" as="geometry" />
        </mxCell>
        <mxCell id="7xT1okyIv0pge_eyf053-60" value="技术组件" style="rounded=0;whiteSpace=wrap;html=1;labelBackgroundColor=none;fillColor=#f8cecc;strokeColor=#b85450;" parent="1" vertex="1">
          <mxGeometry x="-110" y="610" width="120" height="150" as="geometry" />
        </mxCell>
        <mxCell id="7xT1okyIv0pge_eyf053-61" value="基础设施层" style="rounded=0;whiteSpace=wrap;html=1;labelBackgroundColor=none;fillColor=#e1d5e7;strokeColor=#9673a6;" parent="1" vertex="1">
          <mxGeometry x="-110" y="780" width="120" height="130" as="geometry" />
        </mxCell>
        <mxCell id="7xT1okyIv0pge_eyf053-62" value="统计分析" style="text;strokeColor=none;align=center;fillColor=none;html=1;verticalAlign=middle;whiteSpace=wrap;rounded=0;labelBackgroundColor=none;fontStyle=1;fontColor=#1D3557;" parent="1" vertex="1">
          <mxGeometry x="730.0029411764706" y="430.00459854014593" width="89.11764705882354" height="32.846715328467155" as="geometry" />
        </mxCell>
        <mxCell id="7xT1okyIv0pge_eyf053-63" value="终端在线统计" style="rounded=0;whiteSpace=wrap;html=1;labelBackgroundColor=none;fillColor=#e6d0de;strokeColor=#996185;gradientColor=#d5739d;" parent="1" vertex="1">
          <mxGeometry x="540" y="470" width="98.82" height="40" as="geometry" />
        </mxCell>
        <mxCell id="7xT1okyIv0pge_eyf053-64" value="任务下发统计" style="rounded=0;whiteSpace=wrap;html=1;labelBackgroundColor=none;fillColor=#e6d0de;strokeColor=#996185;gradientColor=#d5739d;" parent="1" vertex="1">
          <mxGeometry x="661.18" y="470" width="98.82" height="40" as="geometry" />
        </mxCell>
        <mxCell id="7xT1okyIv0pge_eyf053-65" value="终端策略统计" style="rounded=0;whiteSpace=wrap;html=1;labelBackgroundColor=none;fillColor=#e6d0de;strokeColor=#996185;gradientColor=#d5739d;" parent="1" vertex="1">
          <mxGeometry x="780.01" y="470" width="98.82" height="40" as="geometry" />
        </mxCell>
        <mxCell id="7xT1okyIv0pge_eyf053-66" value="人员统计报表" style="rounded=0;whiteSpace=wrap;html=1;labelBackgroundColor=none;fillColor=#e6d0de;strokeColor=#996185;gradientColor=#d5739d;" parent="1" vertex="1">
          <mxGeometry x="900" y="470" width="98.82" height="40" as="geometry" />
        </mxCell>
        <mxCell id="7xT1okyIv0pge_eyf053-67" value="策略管理" style="text;strokeColor=none;align=center;fillColor=none;html=1;verticalAlign=middle;whiteSpace=wrap;rounded=0;labelBackgroundColor=none;fontStyle=1;fontColor=#1D3557;" parent="1" vertex="1">
          <mxGeometry x="568.8229411764705" y="179.00459854014593" width="89.11764705882354" height="32.846715328467155" as="geometry" />
        </mxCell>
        <mxCell id="7xT1okyIv0pge_eyf053-3" value="" style="rounded=0;whiteSpace=wrap;html=1;labelBackgroundColor=none;dashed=1;fillColor=#647687;strokeColor=#314354;fontColor=#ffffff;" parent="1" vertex="1">
          <mxGeometry x="40" y="696.4963503649635" width="1010.0000000000002" height="65.69343065693431" as="geometry" />
        </mxCell>
        <mxCell id="7xT1okyIv0pge_eyf053-4" value="数据源" style="text;strokeColor=none;align=center;fillColor=none;html=1;verticalAlign=middle;whiteSpace=wrap;rounded=0;labelBackgroundColor=none;fontStyle=1;fontColor=#1D3557;" parent="1" vertex="1">
          <mxGeometry x="54.85294117647059" y="714.0145985401459" width="89.11764705882354" height="32.846715328467155" as="geometry" />
        </mxCell>
        <mxCell id="7xT1okyIv0pge_eyf053-5" value="" style="rounded=0;whiteSpace=wrap;html=1;labelBackgroundColor=none;dashed=1;fillColor=#f0a30a;strokeColor=#BD7000;fontColor=#000000;" parent="1" vertex="1">
          <mxGeometry x="40" y="610" width="1010.0000000000002" height="65.69343065693431" as="geometry" />
        </mxCell>
        <mxCell id="7xT1okyIv0pge_eyf053-6" value="内部数据" style="rounded=0;whiteSpace=wrap;html=1;labelBackgroundColor=none;fillColor=#f5f5f5;strokeColor=#666666;gradientColor=#b3b3b3;" parent="1" vertex="1">
          <mxGeometry x="277.6470588235294" y="707.4452554744526" width="218.33823529411768" height="43.7956204379562" as="geometry" />
        </mxCell>
        <mxCell id="7xT1okyIv0pge_eyf053-7" value="第三方数据" style="rounded=0;whiteSpace=wrap;html=1;labelBackgroundColor=none;fillColor=#f5f5f5;strokeColor=#666666;gradientColor=#b3b3b3;" parent="1" vertex="1">
          <mxGeometry x="604.4117647058824" y="707.4452554744526" width="218.33823529411768" height="43.7956204379562" as="geometry" />
        </mxCell>
        <mxCell id="7xT1okyIv0pge_eyf053-8" value="" style="rounded=0;whiteSpace=wrap;html=1;labelBackgroundColor=none;dashed=1;fillColor=#1ba1e2;strokeColor=#006EAF;fontColor=#ffffff;" parent="1" vertex="1">
          <mxGeometry x="40" y="844.3065693430657" width="1010.0000000000002" height="65.69343065693431" as="geometry" />
        </mxCell>
        <mxCell id="7xT1okyIv0pge_eyf053-9" value="网络" style="rounded=0;whiteSpace=wrap;html=1;labelBackgroundColor=none;fillColor=#dae8fc;strokeColor=#6c8ebf;gradientColor=#7ea6e0;" parent="1" vertex="1">
          <mxGeometry x="203.3823529411765" y="855.2554744525547" width="118.8235294117647" height="43.7956204379562" as="geometry" />
        </mxCell>
        <mxCell id="7xT1okyIv0pge_eyf053-11" value="服务器操作系统" style="rounded=0;whiteSpace=wrap;html=1;labelBackgroundColor=none;fillColor=#dae8fc;strokeColor=#6c8ebf;gradientColor=#7ea6e0;" parent="1" vertex="1">
          <mxGeometry x="377.1617647058824" y="855.2554744525547" width="118.8235294117647" height="43.7956204379562" as="geometry" />
        </mxCell>
        <mxCell id="7xT1okyIv0pge_eyf053-12" value="HA高可用" style="rounded=0;whiteSpace=wrap;html=1;labelBackgroundColor=none;fillColor=#dae8fc;strokeColor=#6c8ebf;gradientColor=#7ea6e0;" parent="1" vertex="1">
          <mxGeometry x="545.0000000000001" y="855.2554744525547" width="118.8235294117647" height="43.7956204379562" as="geometry" />
        </mxCell>
        <mxCell id="7xT1okyIv0pge_eyf053-13" value="Nginx负载均衡" style="rounded=0;whiteSpace=wrap;html=1;labelBackgroundColor=none;fillColor=#dae8fc;strokeColor=#6c8ebf;gradientColor=#7ea6e0;" parent="1" vertex="1">
          <mxGeometry x="723.2352941176471" y="855.2554744525547" width="118.8235294117647" height="43.7956204379562" as="geometry" />
        </mxCell>
        <mxCell id="7xT1okyIv0pge_eyf053-14" value="基础设施" style="text;strokeColor=none;align=center;fillColor=none;html=1;verticalAlign=middle;whiteSpace=wrap;rounded=0;labelBackgroundColor=none;fontStyle=1;fontColor=#1D3557;" parent="1" vertex="1">
          <mxGeometry x="54.85294117647059" y="860.7299270072992" width="89.11764705882354" height="32.846715328467155" as="geometry" />
        </mxCell>
        <mxCell id="7xT1okyIv0pge_eyf053-15" value="Idm" style="rounded=0;whiteSpace=wrap;html=1;labelBackgroundColor=none;fillColor=#ffcd28;strokeColor=#d79b00;gradientColor=#ffa500;" parent="1" vertex="1">
          <mxGeometry x="74.16176470588235" y="620.948905109489" width="118.8235294117647" height="43.7956204379562" as="geometry" />
        </mxCell>
        <mxCell id="7xT1okyIv0pge_eyf053-16" value="Salt Stack" style="rounded=0;whiteSpace=wrap;html=1;labelBackgroundColor=none;fillColor=#ffcd28;strokeColor=#d79b00;gradientColor=#ffa500;" parent="1" vertex="1">
          <mxGeometry x="233.08823529411765" y="620.948905109489" width="118.8235294117647" height="43.7956204379562" as="geometry" />
        </mxCell>
        <mxCell id="7xT1okyIv0pge_eyf053-17" value="Celery" style="rounded=0;whiteSpace=wrap;html=1;labelBackgroundColor=none;fillColor=#ffcd28;strokeColor=#d79b00;gradientColor=#ffa500;" parent="1" vertex="1">
          <mxGeometry x="396.47058823529414" y="620.948905109489" width="118.8235294117647" height="43.7956204379562" as="geometry" />
        </mxCell>
        <mxCell id="7xT1okyIv0pge_eyf053-18" value="Redis" style="rounded=0;whiteSpace=wrap;html=1;labelBackgroundColor=none;fillColor=#ffcd28;strokeColor=#d79b00;gradientColor=#ffa500;" parent="1" vertex="1">
          <mxGeometry x="559.8529411764706" y="620.948905109489" width="118.8235294117647" height="43.7956204379562" as="geometry" />
        </mxCell>
        <mxCell id="7xT1okyIv0pge_eyf053-19" value="Docker" style="rounded=0;whiteSpace=wrap;html=1;labelBackgroundColor=none;fillColor=#ffcd28;strokeColor=#d79b00;gradientColor=#ffa500;" parent="1" vertex="1">
          <mxGeometry x="723.2352941176471" y="620.948905109489" width="118.8235294117647" height="43.7956204379562" as="geometry" />
        </mxCell>
        <mxCell id="7xT1okyIv0pge_eyf053-20" value="Maridb" style="rounded=0;whiteSpace=wrap;html=1;labelBackgroundColor=none;fillColor=#ffcd28;strokeColor=#d79b00;gradientColor=#ffa500;" parent="1" vertex="1">
          <mxGeometry x="886.6176470588235" y="620.948905109489" width="118.8235294117647" height="43.7956204379562" as="geometry" />
        </mxCell>
        <mxCell id="7xT1okyIv0pge_eyf053-21" value="" style="shape=flexArrow;endArrow=classic;startArrow=classic;html=1;rounded=0;startWidth=8;startSize=6;endWidth=8;endSize=6;width=6;labelBackgroundColor=none;fontColor=default;strokeColor=#457B9D;" parent="1" edge="1">
          <mxGeometry width="100" height="100" relative="1" as="geometry">
            <mxPoint x="247.9411764705882" y="832.2627737226278" as="sourcePoint" />
            <mxPoint x="247.9411764705882" y="774.2335766423357" as="targetPoint" />
            <Array as="points">
              <mxPoint x="247.9411764705882" y="799.4160583941606" />
            </Array>
          </mxGeometry>
        </mxCell>
        <mxCell id="7xT1okyIv0pge_eyf053-22" value="" style="shape=flexArrow;endArrow=classic;startArrow=classic;html=1;rounded=0;startWidth=8;startSize=6;endWidth=8;endSize=6;width=6;labelBackgroundColor=none;fontColor=default;strokeColor=#457B9D;" parent="1" edge="1">
          <mxGeometry width="100" height="100" relative="1" as="geometry">
            <mxPoint x="544.2573529411766" y="832.2627737226278" as="sourcePoint" />
            <mxPoint x="544.2573529411766" y="774.2335766423357" as="targetPoint" />
            <Array as="points">
              <mxPoint x="544.2573529411766" y="799.4160583941606" />
            </Array>
          </mxGeometry>
        </mxCell>
        <mxCell id="7xT1okyIv0pge_eyf053-23" value="" style="shape=flexArrow;endArrow=classic;startArrow=classic;html=1;rounded=0;startWidth=8;startSize=6;endWidth=8;endSize=6;width=6;labelBackgroundColor=none;fontColor=default;strokeColor=#457B9D;" parent="1" edge="1">
          <mxGeometry width="100" height="100" relative="1" as="geometry">
            <mxPoint x="797.5" y="832.2627737226278" as="sourcePoint" />
            <mxPoint x="797.5" y="774.2335766423357" as="targetPoint" />
            <Array as="points">
              <mxPoint x="797.5" y="799.4160583941606" />
            </Array>
          </mxGeometry>
        </mxCell>
        <mxCell id="7xT1okyIv0pge_eyf053-2" value="" style="rounded=0;whiteSpace=wrap;html=1;labelBackgroundColor=none;dashed=1;fillColor=#d5e8d4;strokeColor=#82b366;" parent="1" vertex="1">
          <mxGeometry x="117" y="100" width="60" height="487" as="geometry" />
        </mxCell>
        <mxCell id="7xT1okyIv0pge_eyf053-24" value="数&lt;br&gt;据&lt;br&gt;安&lt;br&gt;全&lt;br&gt;管&lt;br&gt;理" style="text;strokeColor=none;align=center;fillColor=none;html=1;verticalAlign=middle;whiteSpace=wrap;rounded=0;labelBackgroundColor=none;fontColor=#1D3557;" parent="1" vertex="1">
          <mxGeometry x="129.5" y="285.8333333333333" width="35" height="139" as="geometry" />
        </mxCell>
        <mxCell id="7xT1okyIv0pge_eyf053-27" value="" style="rounded=0;whiteSpace=wrap;html=1;labelBackgroundColor=none;dashed=1;fillColor=#f5f5f5;strokeColor=#666666;fontColor=#333333;" parent="1" vertex="1">
          <mxGeometry x="40" y="100" width="60" height="487" as="geometry" />
        </mxCell>
        <mxCell id="7xT1okyIv0pge_eyf053-28" value="权&lt;br&gt;限&lt;br&gt;角&lt;br&gt;色&lt;br&gt;管&lt;br&gt;理" style="text;strokeColor=none;align=center;fillColor=none;html=1;verticalAlign=middle;whiteSpace=wrap;rounded=0;labelBackgroundColor=none;fontColor=#1D3557;" parent="1" vertex="1">
          <mxGeometry x="52.5" y="285.8333333333333" width="35" height="139" as="geometry" />
        </mxCell>
        <mxCell id="7xT1okyIv0pge_eyf053-69" value="root权限" style="rounded=0;whiteSpace=wrap;html=1;labelBackgroundColor=none;fillColor=#f8cecc;strokeColor=#b85450;gradientColor=#ea6b66;" parent="1" vertex="1">
          <mxGeometry x="233.09176470588235" y="217.83547445255476" width="118.8235294117647" height="43.7956204379562" as="geometry" />
        </mxCell>
        <mxCell id="7xT1okyIv0pge_eyf053-70" value="时钟同步" style="rounded=0;whiteSpace=wrap;html=1;labelBackgroundColor=none;fillColor=#f8cecc;strokeColor=#b85450;gradientColor=#ea6b66;" parent="1" vertex="1">
          <mxGeometry x="377.1617647058824" y="217.83547445255476" width="118.8235294117647" height="43.7956204379562" as="geometry" />
        </mxCell>
        <mxCell id="7xT1okyIv0pge_eyf053-71" value="密码策略" style="rounded=0;whiteSpace=wrap;html=1;labelBackgroundColor=none;fillColor=#f8cecc;strokeColor=#b85450;gradientColor=#ea6b66;" parent="1" vertex="1">
          <mxGeometry x="530.0017647058824" y="217.83547445255476" width="118.8235294117647" height="43.7956204379562" as="geometry" />
        </mxCell>
        <mxCell id="7xT1okyIv0pge_eyf053-72" value="kms激活" style="rounded=0;whiteSpace=wrap;html=1;labelBackgroundColor=none;fillColor=#f8cecc;strokeColor=#b85450;gradientColor=#ea6b66;" parent="1" vertex="1">
          <mxGeometry x="663.8217647058823" y="217.83547445255476" width="118.8235294117647" height="43.7956204379562" as="geometry" />
        </mxCell>
        <mxCell id="7xT1okyIv0pge_eyf053-73" value="CA证书" style="rounded=0;whiteSpace=wrap;html=1;labelBackgroundColor=none;fillColor=#f8cecc;strokeColor=#b85450;gradientColor=#ea6b66;" parent="1" vertex="1">
          <mxGeometry x="810.0017647058824" y="217.83547445255476" width="118.8235294117647" height="43.7956204379562" as="geometry" />
        </mxCell>
        <mxCell id="7xT1okyIv0pge_eyf053-74" value="" style="rounded=0;whiteSpace=wrap;html=1;labelBackgroundColor=none;dashed=1;fillColor=#fad7ac;strokeColor=#b46504;" parent="1" vertex="1">
          <mxGeometry x="201" y="305" width="850" height="103" as="geometry" />
        </mxCell>
        <mxCell id="7xT1okyIv0pge_eyf053-75" value="软件管理" style="text;strokeColor=none;align=center;fillColor=none;html=1;verticalAlign=middle;whiteSpace=wrap;rounded=0;labelBackgroundColor=none;fontStyle=1;fontColor=#1D3557;" parent="1" vertex="1">
          <mxGeometry x="569.8229411764705" y="305.00459854014593" width="89.11764705882354" height="32.846715328467155" as="geometry" />
        </mxCell>
        <mxCell id="7xT1okyIv0pge_eyf053-76" value="Reprepro仓库" style="rounded=0;whiteSpace=wrap;html=1;labelBackgroundColor=none;fillColor=#fff2cc;strokeColor=#d6b656;gradientColor=#ffd966;" parent="1" vertex="1">
          <mxGeometry x="234.09176470588235" y="343.83547445255476" width="118.8235294117647" height="43.7956204379562" as="geometry" />
        </mxCell>
        <mxCell id="7xT1okyIv0pge_eyf053-77" value="软件分发" style="rounded=0;whiteSpace=wrap;html=1;labelBackgroundColor=none;fillColor=#fff2cc;strokeColor=#d6b656;gradientColor=#ffd966;" parent="1" vertex="1">
          <mxGeometry x="378.1617647058824" y="343.83547445255476" width="118.8235294117647" height="43.7956204379562" as="geometry" />
        </mxCell>
        <mxCell id="7xT1okyIv0pge_eyf053-78" value="软件源管理" style="rounded=0;whiteSpace=wrap;html=1;labelBackgroundColor=none;fillColor=#fff2cc;strokeColor=#d6b656;gradientColor=#ffd966;" parent="1" vertex="1">
          <mxGeometry x="531.0017647058824" y="343.83547445255476" width="118.8235294117647" height="43.7956204379562" as="geometry" />
        </mxCell>
        <mxCell id="7xT1okyIv0pge_eyf053-79" value="软件签名" style="rounded=0;whiteSpace=wrap;html=1;labelBackgroundColor=none;fillColor=#fff2cc;strokeColor=#d6b656;gradientColor=#ffd966;" parent="1" vertex="1">
          <mxGeometry x="664.8217647058823" y="343.83547445255476" width="118.8235294117647" height="43.7956204379562" as="geometry" />
        </mxCell>
        <mxCell id="7xT1okyIv0pge_eyf053-80" value="软件分类管理" style="rounded=0;whiteSpace=wrap;html=1;labelBackgroundColor=none;fillColor=#fff2cc;strokeColor=#d6b656;gradientColor=#ffd966;" parent="1" vertex="1">
          <mxGeometry x="811.0017647058824" y="343.83547445255476" width="118.8235294117647" height="43.7956204379562" as="geometry" />
        </mxCell>
      </root>
    </mxGraphModel>
  </diagram>
  <diagram id="5oO0zdge0b_lwBmciEEE" name="数据中台技术架构图-2">
    <mxGraphModel dx="954" dy="528" grid="1" gridSize="10" guides="1" tooltips="1" connect="1" arrows="1" fold="1" page="1" pageScale="1" pageWidth="827" pageHeight="1169" math="0" shadow="0">
      <root>
        <mxCell id="0" />
        <mxCell id="1" parent="0" />
        <mxCell id="FahSM20ym5paNgnE85Up-1" value="" style="rounded=0;whiteSpace=wrap;html=1;labelBackgroundColor=none;dashed=1;strokeWidth=1;perimeterSpacing=1;container=0;fillColor=#e1d5e7;strokeColor=#9673a6;" parent="1" vertex="1">
          <mxGeometry x="41" y="214" width="660" height="130" as="geometry" />
        </mxCell>
        <mxCell id="FahSM20ym5paNgnE85Up-64" value="" style="rounded=0;whiteSpace=wrap;html=1;labelBackgroundColor=none;dashed=1;fillColor=#ffe6cc;strokeColor=#d79b00;" parent="1" vertex="1">
          <mxGeometry x="1074.15" y="40" width="156" height="570" as="geometry" />
        </mxCell>
        <mxCell id="FahSM20ym5paNgnE85Up-2" value="" style="group;rounded=0;dashed=1;container=0;labelBackgroundColor=none;" parent="1" vertex="1" connectable="0">
          <mxGeometry x="40" y="170" width="60" height="417" as="geometry" />
        </mxCell>
        <mxCell id="FahSM20ym5paNgnE85Up-5" value="" style="rounded=0;whiteSpace=wrap;html=1;labelBackgroundColor=none;dashed=1;fillColor=#dae8fc;strokeColor=#6c8ebf;" parent="1" vertex="1">
          <mxGeometry x="41.15" y="40" width="1009" height="60" as="geometry" />
        </mxCell>
        <mxCell id="FahSM20ym5paNgnE85Up-6" value="数据应用" style="text;align=center;html=1;verticalAlign=middle;whiteSpace=wrap;rounded=0;labelBackgroundColor=none;fontStyle=1;fontSize=14;" parent="1" vertex="1">
          <mxGeometry x="40.152941176470584" y="53.57459854014587" width="89.11764705882354" height="32.846715328467155" as="geometry" />
        </mxCell>
        <mxCell id="FahSM20ym5paNgnE85Up-12" value="" style="rounded=0;whiteSpace=wrap;html=1;labelBackgroundColor=none;dashed=1;fillColor=#fff2cc;strokeColor=#d6b656;" parent="1" vertex="1">
          <mxGeometry x="40.15" y="124.67635036496353" width="1010.0000000000002" height="65.69343065693431" as="geometry" />
        </mxCell>
        <mxCell id="FahSM20ym5paNgnE85Up-14" value="Kylin&lt;br&gt;多维索引/预计算" style="rounded=0;whiteSpace=wrap;html=1;labelBackgroundColor=none;" parent="1" vertex="1">
          <mxGeometry x="428.32" y="230.48000000000002" width="111.83" height="42" as="geometry" />
        </mxCell>
        <mxCell id="FahSM20ym5paNgnE85Up-15" value="数据接口 Restful API" style="rounded=0;whiteSpace=wrap;html=1;labelBackgroundColor=none;" parent="1" vertex="1">
          <mxGeometry x="149.72" y="135.63" width="420.43" height="43.8" as="geometry" />
        </mxCell>
        <mxCell id="FahSM20ym5paNgnE85Up-16" value="流式数据 Rabbit MQ" style="rounded=0;whiteSpace=wrap;html=1;labelBackgroundColor=none;strokeColor=default;" parent="1" vertex="1">
          <mxGeometry x="630.15" y="135.62" width="385.83" height="43.8" as="geometry" />
        </mxCell>
        <mxCell id="FahSM20ym5paNgnE85Up-20" value="可视化分析" style="rounded=0;whiteSpace=wrap;html=1;labelBackgroundColor=none;" parent="1" vertex="1">
          <mxGeometry x="151.15176470588236" y="48.095474452554754" width="118.8235294117647" height="43.7956204379562" as="geometry" />
        </mxCell>
        <mxCell id="FahSM20ym5paNgnE85Up-22" value="标签系统" style="rounded=0;whiteSpace=wrap;html=1;labelBackgroundColor=none;" parent="1" vertex="1">
          <mxGeometry x="309.4917647058823" y="48.105474452554745" width="118.8235294117647" height="43.7956204379562" as="geometry" />
        </mxCell>
        <mxCell id="FahSM20ym5paNgnE85Up-23" value="自助查询" style="rounded=0;whiteSpace=wrap;html=1;labelBackgroundColor=none;" parent="1" vertex="1">
          <mxGeometry x="460.15176470588233" y="48.115474452554736" width="118.8235294117647" height="43.7956204379562" as="geometry" />
        </mxCell>
        <mxCell id="FahSM20ym5paNgnE85Up-24" value="数据接口" style="rounded=0;whiteSpace=wrap;html=1;labelBackgroundColor=none;" parent="1" vertex="1">
          <mxGeometry x="911.3217647058823" y="48.095474452554754" width="118.8235294117647" height="43.7956204379562" as="geometry" />
        </mxCell>
        <mxCell id="FahSM20ym5paNgnE85Up-25" value="旅客画像" style="rounded=0;whiteSpace=wrap;html=1;labelBackgroundColor=none;" parent="1" vertex="1">
          <mxGeometry x="620.1517647058823" y="48.095474452554754" width="118.8235294117647" height="43.7956204379562" as="geometry" />
        </mxCell>
        <mxCell id="FahSM20ym5paNgnE85Up-40" value="" style="rounded=0;whiteSpace=wrap;html=1;labelBackgroundColor=none;dashed=1;fillColor=#f8cecc;strokeColor=#b85450;" parent="1" vertex="1">
          <mxGeometry x="40.15" y="454.4963503649635" width="1010.0000000000002" height="65.69343065693431" as="geometry" />
        </mxCell>
        <mxCell id="FahSM20ym5paNgnE85Up-41" value="数据采集" style="text;align=center;html=1;verticalAlign=middle;whiteSpace=wrap;rounded=0;labelBackgroundColor=none;fontStyle=1;fontSize=14;" parent="1" vertex="1">
          <mxGeometry x="40.002941176470586" y="472.0145985401459" width="89.11764705882354" height="32.846715328467155" as="geometry" />
        </mxCell>
        <mxCell id="FahSM20ym5paNgnE85Up-42" value="" style="rounded=0;whiteSpace=wrap;html=1;labelBackgroundColor=none;dashed=1;fillColor=#d5e8d4;strokeColor=#82b366;" parent="1" vertex="1">
          <mxGeometry x="40.15" y="368" width="1010.0000000000002" height="65.69343065693431" as="geometry" />
        </mxCell>
        <mxCell id="FahSM20ym5paNgnE85Up-43" value="DataX&lt;br&gt;数据传输" style="rounded=0;whiteSpace=wrap;html=1;labelBackgroundColor=none;" parent="1" vertex="1">
          <mxGeometry x="149.72" y="465.44000000000005" width="140" height="42.56" as="geometry" />
        </mxCell>
        <mxCell id="FahSM20ym5paNgnE85Up-44" value="Restful API" style="rounded=0;whiteSpace=wrap;html=1;labelBackgroundColor=none;" parent="1" vertex="1">
          <mxGeometry x="723.39" y="467.15999999999997" width="128.83" height="42.56" as="geometry" />
        </mxCell>
        <mxCell id="FahSM20ym5paNgnE85Up-45" value="" style="rounded=0;whiteSpace=wrap;html=1;labelBackgroundColor=none;dashed=1;fillColor=#ffe6cc;strokeColor=#d79b00;" parent="1" vertex="1">
          <mxGeometry x="40.15" y="542.3065693430657" width="1010.0000000000002" height="65.69343065693431" as="geometry" />
        </mxCell>
        <mxCell id="FahSM20ym5paNgnE85Up-46" value="网络" style="rounded=0;whiteSpace=wrap;html=1;labelBackgroundColor=none;" parent="1" vertex="1">
          <mxGeometry x="151.15" y="553.26" width="140.43" height="43.8" as="geometry" />
        </mxCell>
        <mxCell id="FahSM20ym5paNgnE85Up-47" value="移动网络" style="rounded=0;whiteSpace=wrap;html=1;labelBackgroundColor=none;" parent="1" vertex="1">
          <mxGeometry x="351.03999999999996" y="554.73" width="139.41" height="43.8" as="geometry" />
        </mxCell>
        <mxCell id="FahSM20ym5paNgnE85Up-48" value="云平台" style="rounded=0;whiteSpace=wrap;html=1;labelBackgroundColor=none;" parent="1" vertex="1">
          <mxGeometry x="540.15" y="553.26" width="140" height="43.8" as="geometry" />
        </mxCell>
        <mxCell id="FahSM20ym5paNgnE85Up-49" value="本地机房" style="rounded=0;whiteSpace=wrap;html=1;labelBackgroundColor=none;" parent="1" vertex="1">
          <mxGeometry x="723.39" y="553.73" width="126.76" height="43.8" as="geometry" />
        </mxCell>
        <mxCell id="FahSM20ym5paNgnE85Up-50" value="基础设施" style="text;align=center;html=1;verticalAlign=middle;whiteSpace=wrap;rounded=0;labelBackgroundColor=none;fontStyle=1;fontSize=14;" parent="1" vertex="1">
          <mxGeometry x="40.002941176470586" y="558.7299270072992" width="89.11764705882354" height="32.846715328467155" as="geometry" />
        </mxCell>
        <mxCell id="FahSM20ym5paNgnE85Up-81" value="运维监控" style="text;align=center;html=1;verticalAlign=middle;whiteSpace=wrap;rounded=0;labelBackgroundColor=none;fontStyle=1;fontSize=14;" parent="1" vertex="1">
          <mxGeometry x="1108.3829411764705" y="385.1545985401459" width="89.11764705882354" height="32.846715328467155" as="geometry" />
        </mxCell>
        <mxCell id="FahSM20ym5paNgnE85Up-82" value="Zabbix" style="rounded=0;whiteSpace=wrap;html=1;labelBackgroundColor=none;" parent="1" vertex="1">
          <mxGeometry x="1092.74" y="422.01" width="117.41" height="50" as="geometry" />
        </mxCell>
        <mxCell id="FahSM20ym5paNgnE85Up-83" value="Grafina" style="rounded=0;whiteSpace=wrap;html=1;labelBackgroundColor=none;" parent="1" vertex="1">
          <mxGeometry x="1092.74" y="555.73" width="117.41" height="43.8" as="geometry" />
        </mxCell>
        <mxCell id="FahSM20ym5paNgnE85Up-84" value="RabbitMQ" style="rounded=0;whiteSpace=wrap;html=1;labelBackgroundColor=none;" parent="1" vertex="1">
          <mxGeometry x="895.3299999999999" y="467.1600000000001" width="122.82" height="42.56" as="geometry" />
        </mxCell>
        <mxCell id="FahSM20ym5paNgnE85Up-85" value="HDFS&lt;br&gt;分布式文件系统" style="rounded=0;whiteSpace=wrap;html=1;labelBackgroundColor=none;" parent="1" vertex="1">
          <mxGeometry x="149.72" y="381.32000000000005" width="250.43" height="42" as="geometry" />
        </mxCell>
        <mxCell id="FahSM20ym5paNgnE85Up-86" value="数据存储" style="text;align=center;html=1;verticalAlign=middle;whiteSpace=wrap;rounded=0;labelBackgroundColor=none;fontStyle=1;fontSize=14;" parent="1" vertex="1">
          <mxGeometry x="41.00294117647058" y="384.4245985401459" width="89.11764705882354" height="32.846715328467155" as="geometry" />
        </mxCell>
        <mxCell id="FahSM20ym5paNgnE85Up-109" value="数据服务" style="text;align=center;html=1;verticalAlign=middle;whiteSpace=wrap;rounded=0;labelBackgroundColor=none;fontStyle=1;fontSize=14;" parent="1" vertex="1">
          <mxGeometry x="41.152941176470584" y="141.10459854014584" width="89.11764705882354" height="32.846715328467155" as="geometry" />
        </mxCell>
        <mxCell id="FahSM20ym5paNgnE85Up-67" value="数据质量&lt;span style=&quot;background-color: rgb(251, 251, 251);&quot;&gt;&lt;br&gt;&lt;/span&gt;&lt;div style=&quot;text-align: center;&quot;&gt;&lt;span style=&quot;background-color: rgb(255, 255, 255); font-family: &amp;quot;pingfang SC&amp;quot;, &amp;quot;helvetica neue&amp;quot;, arial, &amp;quot;hiragino sans gb&amp;quot;, &amp;quot;microsoft yahei ui&amp;quot;, &amp;quot;microsoft yahei&amp;quot;, simsun, sans-serif; text-align: start;&quot;&gt;Griffin&lt;/span&gt;&lt;/div&gt;" style="rounded=0;whiteSpace=wrap;html=1;labelBackgroundColor=none;" parent="1" vertex="1">
          <mxGeometry x="1098.24" y="91.91000000000003" width="111.91" height="78.09" as="geometry" />
        </mxCell>
        <mxCell id="FahSM20ym5paNgnE85Up-68" value="数据地图&lt;br&gt;Atlas" style="rounded=0;whiteSpace=wrap;html=1;labelBackgroundColor=none;" parent="1" vertex="1">
          <mxGeometry x="1095.74" y="187" width="114.41" height="80.95" as="geometry" />
        </mxCell>
        <mxCell id="FahSM20ym5paNgnE85Up-77" value="数据资产管理" style="text;align=center;html=1;verticalAlign=middle;whiteSpace=wrap;rounded=0;labelBackgroundColor=none;fontStyle=1;fontSize=14;" parent="1" vertex="1">
          <mxGeometry x="1100.15" y="48.10000000000002" width="102.06" height="32.85" as="geometry" />
        </mxCell>
        <mxCell id="FahSM20ym5paNgnE85Up-80" value="数据权限&lt;br&gt;Ranger" style="rounded=0;whiteSpace=wrap;html=1;labelBackgroundColor=none;" parent="1" vertex="1">
          <mxGeometry x="1096.5100000000002" y="288" width="115.37" height="80" as="geometry" />
        </mxCell>
        <mxCell id="FahSM20ym5paNgnE85Up-111" value="Prometheus" style="rounded=0;whiteSpace=wrap;html=1;labelBackgroundColor=none;" parent="1" vertex="1">
          <mxGeometry x="1093.47" y="490.30999999999995" width="117.41" height="50" as="geometry" />
        </mxCell>
        <mxCell id="FahSM20ym5paNgnE85Up-115" value="" style="group;labelBackgroundColor=none;fillColor=#f8cecc;strokeColor=#b85450;container=0;" parent="1" vertex="1" connectable="0">
          <mxGeometry x="715.98" y="214" width="160" height="130" as="geometry" />
        </mxCell>
        <mxCell id="FahSM20ym5paNgnE85Up-92" value="Ray&lt;br&gt;推荐平台" style="rounded=0;whiteSpace=wrap;html=1;labelBackgroundColor=none;container=0;" parent="1" vertex="1">
          <mxGeometry x="571.15" y="230.4727710843373" width="107.09" height="42" as="geometry" />
        </mxCell>
        <mxCell id="FahSM20ym5paNgnE85Up-35" value="Flink&lt;br&gt;流式计算" style="rounded=0;whiteSpace=wrap;html=1;labelBackgroundColor=none;container=0;" parent="1" vertex="1">
          <mxGeometry x="297.80999999999995" y="230.47710843373505" width="108.29" height="42" as="geometry" />
        </mxCell>
        <mxCell id="FahSM20ym5paNgnE85Up-21" value="Hive&lt;br&gt;数据仓库" style="rounded=0;whiteSpace=wrap;html=1;labelBackgroundColor=none;container=0;" parent="1" vertex="1">
          <mxGeometry x="151.15" y="230.00435294117653" width="109.85" height="42" as="geometry" />
        </mxCell>
        <mxCell id="FahSM20ym5paNgnE85Up-26" value="Spark&lt;br&gt;快速分析查询" style="rounded=0;whiteSpace=wrap;html=1;labelBackgroundColor=none;container=0;" parent="1" vertex="1">
          <mxGeometry x="149.72" y="288.9222352941175" width="111.28" height="42" as="geometry" />
        </mxCell>
        <mxCell id="FahSM20ym5paNgnE85Up-96" value="数据计算" style="text;align=center;html=1;verticalAlign=middle;whiteSpace=wrap;rounded=0;labelBackgroundColor=none;fontStyle=1;container=0;fontSize=14;" parent="1" vertex="1">
          <mxGeometry x="40.15" y="263.44000000000005" width="90" height="29.56" as="geometry" />
        </mxCell>
        <mxCell id="FahSM20ym5paNgnE85Up-112" value="人脸识别" style="rounded=0;whiteSpace=wrap;html=1;labelBackgroundColor=none;container=0;" parent="1" vertex="1">
          <mxGeometry x="571.15" y="288.5693975903615" width="107.09" height="42" as="geometry" />
        </mxCell>
        <mxCell id="FahSM20ym5paNgnE85Up-113" value="Tez&lt;br&gt;计算框架" style="rounded=0;whiteSpace=wrap;html=1;labelBackgroundColor=none;container=0;" parent="1" vertex="1">
          <mxGeometry x="296.41999999999996" y="290.00289156626513" width="108.29" height="42" as="geometry" />
        </mxCell>
        <mxCell id="FahSM20ym5paNgnE85Up-117" value="Sqoop&lt;br&gt;数据导入" style="rounded=0;whiteSpace=wrap;html=1;labelBackgroundColor=none;" parent="1" vertex="1">
          <mxGeometry x="350.74" y="465.44000000000005" width="140" height="42.56" as="geometry" />
        </mxCell>
        <mxCell id="FahSM20ym5paNgnE85Up-118" value="Flume&lt;br&gt;日志采集" style="rounded=0;whiteSpace=wrap;html=1;labelBackgroundColor=none;" parent="1" vertex="1">
          <mxGeometry x="540.15" y="467.1600000000001" width="140" height="42.56" as="geometry" />
        </mxCell>
        <mxCell id="FahSM20ym5paNgnE85Up-119" value="Trino&lt;br&gt;分布式查询引擎" style="rounded=0;whiteSpace=wrap;html=1;labelBackgroundColor=none;" parent="1" vertex="1">
          <mxGeometry x="428.32" y="288.57000000000005" width="111.83" height="42" as="geometry" />
        </mxCell>
        <mxCell id="FahSM20ym5paNgnE85Up-120" value="推荐系统" style="rounded=0;whiteSpace=wrap;html=1;labelBackgroundColor=none;" parent="1" vertex="1">
          <mxGeometry x="772.3223529411764" y="48.115474452554736" width="118.8235294117647" height="43.7956204379562" as="geometry" />
        </mxCell>
        <mxCell id="FahSM20ym5paNgnE85Up-121" value="HBase&lt;br&gt;非关系型数据库" style="rounded=0;whiteSpace=wrap;html=1;labelBackgroundColor=none;" parent="1" vertex="1">
          <mxGeometry x="470.15" y="380.85" width="240" height="42" as="geometry" />
        </mxCell>
        <mxCell id="FahSM20ym5paNgnE85Up-122" value="MySQL&lt;br&gt;关系型数据库" style="rounded=0;whiteSpace=wrap;html=1;labelBackgroundColor=none;" parent="1" vertex="1">
          <mxGeometry x="780.15" y="381.32000000000005" width="230" height="42" as="geometry" />
        </mxCell>
        <mxCell id="-vOSqX19OpU3c5eJ-dps-1" value="" style="group;labelBackgroundColor=none;fillColor=#fff2cc;strokeColor=#d6b656;container=0;" parent="1" vertex="1" connectable="0">
          <mxGeometry x="893.33" y="213.22000000000003" width="159" height="130" as="geometry" />
        </mxCell>
        <mxCell id="FahSM20ym5paNgnE85Up-99" value="" style="rounded=0;whiteSpace=wrap;html=1;labelBackgroundColor=none;dashed=1;fillColor=#e1d5e7;strokeColor=#9673a6;" parent="1" vertex="1">
          <mxGeometry x="715.98" y="214" width="160" height="130" as="geometry" />
        </mxCell>
        <mxCell id="FahSM20ym5paNgnE85Up-100" value="资源管理" style="text;align=center;html=1;verticalAlign=middle;whiteSpace=wrap;rounded=0;labelBackgroundColor=none;fontStyle=1;fontSize=14;" parent="1" vertex="1">
          <mxGeometry x="756.3963194968554" y="223.93716153127917" width="78.91952955974843" height="25.457983193277308" as="geometry" />
        </mxCell>
        <mxCell id="FahSM20ym5paNgnE85Up-101" value="Yarn" style="rounded=0;whiteSpace=wrap;html=1;labelBackgroundColor=none;" parent="1" vertex="1">
          <mxGeometry x="734.96" y="261.98" width="112.22" height="42.02" as="geometry" />
        </mxCell>
        <mxCell id="FahSM20ym5paNgnE85Up-103" value="" style="rounded=0;whiteSpace=wrap;html=1;labelBackgroundColor=none;dashed=1;fillColor=#e1d5e7;strokeColor=#9673a6;" parent="1" vertex="1">
          <mxGeometry x="893.33" y="213.22000000000003" width="159" height="130" as="geometry" />
        </mxCell>
        <mxCell id="FahSM20ym5paNgnE85Up-104" value="任务管理" style="text;align=center;html=1;verticalAlign=middle;whiteSpace=wrap;rounded=0;labelBackgroundColor=none;fontStyle=1;fontSize=14;" parent="1" vertex="1">
          <mxGeometry x="928.2729411764705" y="218.4809835766423" width="89.11764705882354" height="32.02554744525548" as="geometry" />
        </mxCell>
        <mxCell id="FahSM20ym5paNgnE85Up-105" value="Dolphin" style="rounded=0;whiteSpace=wrap;html=1;labelBackgroundColor=none;" parent="1" vertex="1">
          <mxGeometry x="913.4217647058823" y="256.872837591241" width="118.8235294117647" height="42.700729927007295" as="geometry" />
        </mxCell>
      </root>
    </mxGraphModel>
  </diagram>
  <diagram id="JWkTIdSRsDsGcexqQB3X" name="安全保障">
    <mxGraphModel dx="954" dy="528" grid="1" gridSize="10" guides="1" tooltips="1" connect="1" arrows="1" fold="1" page="1" pageScale="1" pageWidth="827" pageHeight="1169" math="0" shadow="0">
      <root>
        <mxCell id="0" />
        <mxCell id="1" parent="0" />
        <mxCell id="VzYkjXNxpJz7nn8vD5TT-3" value="" style="group;rounded=0;dashed=1;container=0;labelBackgroundColor=none;" parent="1" vertex="1" connectable="0">
          <mxGeometry x="1032.25" y="170" width="60" height="417" as="geometry" />
        </mxCell>
        <mxCell id="VzYkjXNxpJz7nn8vD5TT-15" value="" style="rounded=0;whiteSpace=wrap;html=1;labelBackgroundColor=none;dashed=1;fillColor=#f8cecc;strokeColor=#b85450;" parent="1" vertex="1">
          <mxGeometry x="240" y="267.6" width="180" height="208" as="geometry" />
        </mxCell>
        <mxCell id="VzYkjXNxpJz7nn8vD5TT-16" value="数据脱敏" style="text;align=center;html=1;verticalAlign=middle;whiteSpace=wrap;rounded=0;labelBackgroundColor=none;fontStyle=1;fontSize=14;" parent="1" vertex="1">
          <mxGeometry x="244.46294117647057" y="282.75459854014593" width="89.11764705882354" height="32.846715328467155" as="geometry" />
        </mxCell>
        <mxCell id="VzYkjXNxpJz7nn8vD5TT-17" value="" style="rounded=0;whiteSpace=wrap;html=1;labelBackgroundColor=none;dashed=1;fillColor=#d5e8d4;strokeColor=#82b366;" parent="1" vertex="1">
          <mxGeometry x="40.15" y="267.6" width="180" height="208" as="geometry" />
        </mxCell>
        <mxCell id="VzYkjXNxpJz7nn8vD5TT-20" value="" style="rounded=0;whiteSpace=wrap;html=1;labelBackgroundColor=none;dashed=1;fillColor=#ffe6cc;strokeColor=#d79b00;" parent="1" vertex="1">
          <mxGeometry x="40.15" y="41.31" width="180" height="208" as="geometry" />
        </mxCell>
        <mxCell id="VzYkjXNxpJz7nn8vD5TT-21" value="统一认证" style="rounded=0;whiteSpace=wrap;html=1;labelBackgroundColor=none;" parent="1" vertex="1">
          <mxGeometry x="58.51" y="101.98" width="141.49" height="35" as="geometry" />
        </mxCell>
        <mxCell id="VzYkjXNxpJz7nn8vD5TT-22" value="SSL数据加密" style="rounded=0;whiteSpace=wrap;html=1;labelBackgroundColor=none;" parent="1" vertex="1">
          <mxGeometry x="57.02" y="153.8" width="142.98" height="35" as="geometry" />
        </mxCell>
        <mxCell id="VzYkjXNxpJz7nn8vD5TT-23" value="数据权限" style="rounded=0;whiteSpace=wrap;html=1;labelBackgroundColor=none;" parent="1" vertex="1">
          <mxGeometry x="58.51" y="204.05" width="141.49" height="35" as="geometry" />
        </mxCell>
        <mxCell id="VzYkjXNxpJz7nn8vD5TT-25" value="认证授权" style="text;align=center;html=1;verticalAlign=middle;whiteSpace=wrap;rounded=0;labelBackgroundColor=none;fontStyle=1;fontSize=14;" parent="1" vertex="1">
          <mxGeometry x="40.002941176470586" y="58.72992700729924" width="89.11764705882354" height="32.846715328467155" as="geometry" />
        </mxCell>
        <mxCell id="VzYkjXNxpJz7nn8vD5TT-31" value="数据加密" style="text;align=center;html=1;verticalAlign=middle;whiteSpace=wrap;rounded=0;labelBackgroundColor=none;fontStyle=1;fontSize=14;" parent="1" vertex="1">
          <mxGeometry x="49.85294117647058" y="286.8045985401459" width="89.11764705882354" height="32.846715328467155" as="geometry" />
        </mxCell>
        <mxCell id="VzYkjXNxpJz7nn8vD5TT-56" value="" style="rounded=0;whiteSpace=wrap;html=1;labelBackgroundColor=none;dashed=1;fillColor=#e1d5e7;strokeColor=#9673a6;" parent="1" vertex="1">
          <mxGeometry x="40.15" y="488.1" width="379.85" height="51.9" as="geometry" />
        </mxCell>
        <mxCell id="VzYkjXNxpJz7nn8vD5TT-59" value="存储加密" style="rounded=0;whiteSpace=wrap;html=1;labelBackgroundColor=none;" parent="1" vertex="1">
          <mxGeometry x="57.57000000000002" y="337.6" width="140.43" height="35" as="geometry" />
        </mxCell>
        <mxCell id="VzYkjXNxpJz7nn8vD5TT-60" value="传输加密" style="rounded=0;whiteSpace=wrap;html=1;labelBackgroundColor=none;" parent="1" vertex="1">
          <mxGeometry x="56.12999999999997" y="407.6" width="140.43" height="35" as="geometry" />
        </mxCell>
        <mxCell id="VzYkjXNxpJz7nn8vD5TT-61" value="敏感数据识别" style="rounded=0;whiteSpace=wrap;html=1;labelBackgroundColor=none;" parent="1" vertex="1">
          <mxGeometry x="263.80000000000007" y="337.6" width="140.43" height="35" as="geometry" />
        </mxCell>
        <mxCell id="VzYkjXNxpJz7nn8vD5TT-62" value="" style="rounded=0;whiteSpace=wrap;html=1;labelBackgroundColor=none;dashed=1;fillColor=#dae8fc;strokeColor=#6c8ebf;" parent="1" vertex="1">
          <mxGeometry x="240" y="41.309999999999995" width="180" height="208" as="geometry" />
        </mxCell>
        <mxCell id="VzYkjXNxpJz7nn8vD5TT-63" value="数据共享安全" style="text;align=center;html=1;verticalAlign=middle;whiteSpace=wrap;rounded=0;labelBackgroundColor=none;fontStyle=1;fontSize=14;" parent="1" vertex="1">
          <mxGeometry x="259.0829411764705" y="54.31459854014591" width="89.11764705882354" height="32.846715328467155" as="geometry" />
        </mxCell>
        <mxCell id="VzYkjXNxpJz7nn8vD5TT-64" value="接口数据" style="rounded=0;whiteSpace=wrap;html=1;labelBackgroundColor=none;" parent="1" vertex="1">
          <mxGeometry x="259.08000000000004" y="97.74000000000004" width="140.43" height="35" as="geometry" />
        </mxCell>
        <mxCell id="VzYkjXNxpJz7nn8vD5TT-65" value="流式数据" style="rounded=0;whiteSpace=wrap;html=1;labelBackgroundColor=none;" parent="1" vertex="1">
          <mxGeometry x="260.30000000000007" y="150.16" width="140.43" height="35" as="geometry" />
        </mxCell>
        <mxCell id="VzYkjXNxpJz7nn8vD5TT-66" value="文件共享" style="rounded=0;whiteSpace=wrap;html=1;labelBackgroundColor=none;" parent="1" vertex="1">
          <mxGeometry x="260.30000000000007" y="204.20999999999995" width="140.43" height="35" as="geometry" />
        </mxCell>
        <mxCell id="VzYkjXNxpJz7nn8vD5TT-68" value="敏感数据脱敏" style="rounded=0;whiteSpace=wrap;html=1;labelBackgroundColor=none;" parent="1" vertex="1">
          <mxGeometry x="263.80000000000007" y="405.6" width="140.43" height="35" as="geometry" />
        </mxCell>
        <mxCell id="VzYkjXNxpJz7nn8vD5TT-70" value="数据容灾备份" style="rounded=0;whiteSpace=wrap;html=1;labelBackgroundColor=none;" parent="1" vertex="1">
          <mxGeometry x="159.99999999999997" y="496.20000000000005" width="140.43" height="35" as="geometry" />
        </mxCell>
        <mxCell id="VzYkjXNxpJz7nn8vD5TT-71" value="" style="rounded=0;whiteSpace=wrap;html=1;labelBackgroundColor=none;dashed=1;fillColor=#fff2cc;strokeColor=#d6b656;" parent="1" vertex="1">
          <mxGeometry x="41.13" y="553" width="378.87" height="50" as="geometry" />
        </mxCell>
        <mxCell id="VzYkjXNxpJz7nn8vD5TT-72" value="数据访问日志审计" style="rounded=0;whiteSpace=wrap;html=1;labelBackgroundColor=none;" parent="1" vertex="1">
          <mxGeometry x="165.3499999999999" y="561.1" width="140.43" height="35" as="geometry" />
        </mxCell>
      </root>
    </mxGraphModel>
  </diagram>
</mxfile>
